<svg width="21" height="21" viewBox="0 0 21 21" fill="none" xmlns="http://www.w3.org/2000/svg">
<g clip-path="url(#clip0_16_4)">
<path d="M8.75 7H14V8.16667H8.75V7Z" />
<path d="M8.75 9.33333H14V10.5H8.75V9.33333Z" />
<path d="M8.75 11.6667H14V12.8333H8.75V11.6667Z" />
<path d="M8.75 14H14V15.1667H8.75V14Z" />
<path d="M6.41667 4.66667H7.58334V5.83334H6.41667V4.66667Z" />
<path d="M6.41667 7H7.58334V8.16667H6.41667V7Z" />
<path d="M6.41667 9.33333H7.58334V10.5H6.41667V9.33333Z" />
<path d="M6.41667 11.6667H7.58334V12.8333H6.41667V11.6667Z" />
<path d="M6.41667 14H7.58334V15.1667H6.41667V14Z" />
<path d="M8.75 4.66667V5.83334H13.8017C13.5721 5.47213 13.3972 5.079 13.2825 4.66667H8.75Z" />
<path d="M15.75 6.3V18.375H5.25001V2.625H13.125C13.2378 2.213 13.5741 1.52822 13.8017 1.16667H4.66667C4.35725 1.16667 4.0605 1.28959 3.84171 1.50838C3.62292 1.72717 3.5 2.02392 3.5 2.33334V18.6667C3.5 18.9761 3.62292 19.2728 3.84171 19.4916C4.0605 19.7104 4.35725 19.8333 4.66667 19.8333H16.3333C16.6428 19.8333 16.9395 19.7104 17.1583 19.4916C17.3771 19.2728 17.5 18.9761 17.5 18.6667V6.82501C16.275 6.825 15.75 6.3 15.75 6.3Z" />
<path d="M16.6833 4.78333C17.8431 4.78333 18.7833 3.84313 18.7833 2.68333C18.7833 1.52353 17.8431 0.583328 16.6833 0.583328C15.5235 0.583328 14.5833 1.52353 14.5833 2.68333C14.5833 3.84313 15.5235 4.78333 16.6833 4.78333Z" />
</g>
<defs>
<clipPath id="clip0_16_4">
<rect width="21" height="21" fill="white"/>
</clipPath>
</defs>
</svg>
