<svg width="316" height="316" viewBox="0 0 316 316" fill="none" xmlns="http://www.w3.org/2000/svg">
<g clip-path="url(#clip0_22715_7444)">
<path d="M157.875 312.875C243.479 312.875 312.875 243.479 312.875 157.875C312.875 72.2709 243.479 2.875 157.875 2.875C72.2709 2.875 2.875 72.2709 2.875 157.875C2.875 243.479 72.2709 312.875 157.875 312.875Z" stroke="black" stroke-width="5.75" stroke-miterlimit="10"/>
<path d="M157.875 257.875C213.103 257.875 257.875 213.103 257.875 157.875C257.875 102.647 213.103 57.875 157.875 57.875C102.647 57.875 57.875 102.647 57.875 157.875C57.875 213.103 102.647 257.875 157.875 257.875Z" stroke="#C0C0C0" stroke-width="4.5" stroke-miterlimit="4.5"/>
<mask id="mask0_22715_7444" style="mask-type:luminance" maskUnits="userSpaceOnUse" x="57" y="57" width="201" height="201">
<path d="M157.875 257.875C213.103 257.875 257.875 213.103 257.875 157.875C257.875 102.647 213.103 57.875 157.875 57.875C102.647 57.875 57.875 102.647 57.875 157.875C57.875 213.103 102.647 257.875 157.875 257.875Z" fill="white"/>
</mask>
<g mask="url(#mask0_22715_7444)">
<path d="M157.875 257.875C192.393 257.875 220.375 213.103 220.375 157.875C220.375 102.647 192.393 57.875 157.875 57.875C123.357 57.875 95.375 102.647 95.375 157.875C95.375 213.103 123.357 257.875 157.875 257.875Z" stroke="#C0C0C0" stroke-width="4.5" stroke-miterlimit="4.5"/>
<path d="M157.875 257.875C172.511 257.875 184.375 213.103 184.375 157.875C184.375 102.647 172.511 57.875 157.875 57.875C143.239 57.875 131.375 102.647 131.375 157.875C131.375 213.103 143.239 257.875 157.875 257.875Z" stroke="#C0C0C0" stroke-width="4.5" stroke-miterlimit="4.5"/>
<path d="M157.875 481.875C229.672 481.875 287.875 423.672 287.875 351.875C287.875 280.078 229.672 221.875 157.875 221.875C86.078 221.875 27.875 280.078 27.875 351.875C27.875 423.672 86.078 481.875 157.875 481.875Z" stroke="#C0C0C0" stroke-width="4.5" stroke-miterlimit="4.5"/>
<path d="M157.875 705.875C301.469 705.875 417.875 589.469 417.875 445.875C417.875 302.281 301.469 185.875 157.875 185.875C14.281 185.875 -102.125 302.281 -102.125 445.875C-102.125 589.469 14.281 705.875 157.875 705.875Z" stroke="#C0C0C0" stroke-width="4.5" stroke-miterlimit="4.5"/>
<path d="M157.875 93.875C229.672 93.875 287.875 35.672 287.875 -36.125C287.875 -107.922 229.672 -166.125 157.875 -166.125C86.078 -166.125 27.875 -107.922 27.875 -36.125C27.875 35.672 86.078 93.875 157.875 93.875Z" stroke="#C0C0C0" stroke-width="4.5" stroke-miterlimit="4.5"/>
<path d="M157.875 129.875C301.469 129.875 417.875 13.4691 417.875 -130.125C417.875 -273.719 301.469 -390.125 157.875 -390.125C14.281 -390.125 -102.125 -273.719 -102.125 -130.125C-102.125 13.4691 14.281 129.875 157.875 129.875Z" stroke="#C0C0C0" stroke-width="4.5" stroke-miterlimit="4.5"/>
<path d="M57.875 157.875H257.875" stroke="#C0C0C0" stroke-width="4.5" stroke-miterlimit="4.5"/>
<path d="M157.875 57.875V257.875" stroke="#C0C0C0" stroke-width="4.5" stroke-miterlimit="4.5"/>
</g>
<path d="M68.1753 269.435C70.5953 271.255 77.9653 275.695 88.5753 275.695C111.395 275.695 114.125 261.555 143.105 261.555C166.035 261.555 186.735 280.035 196.625 289.425L190.365 294.875C186.735 289.825 166.535 265.595 146.135 265.595C133.115 265.595 123.215 284.785 99.6853 284.785C81.8153 284.785 72.1153 274.895 68.1753 269.435Z" fill="black"/>
<path d="M125.155 261.615C114.955 261.365 100.115 269.505 85.175 269.185C73.255 268.935 52.055 262.775 44.125 244.495C48.925 249.845 55.865 257.045 77.295 257.215C90.315 257.315 102.235 260.855 106.525 260.855C100.615 259.345 93.985 257.035 88.655 251.915C83.655 247.115 78.205 231.365 74.115 226.615C81.535 229.845 95.875 246.305 101.635 251.155C111.055 259.095 115.465 259.235 125.155 261.615Z" fill="black"/>
<path d="M87.5949 254.695C77.3949 252.675 56.6249 249.005 51.6449 245.805C43.4649 240.555 25.7949 230.765 22.5649 208.645C25.8949 216.925 35.8949 226.215 50.0349 231.775C62.9149 236.835 68.4149 243.785 75.7849 247.935C70.0349 243.595 66.0849 238.545 63.0649 233.195C57.8749 224.025 58.625 201.995 53.575 195.635C61.855 203.205 68.8349 218.485 70.8449 224.415C74.9749 236.625 79.2149 249.945 87.5949 254.695Z" fill="black"/>
<path d="M59.6251 232.585C53.8651 226.625 31.4451 215.925 26.0951 207.945C20.6751 199.875 10.9451 192.395 13.5751 168.665C14.0651 177.575 19.6551 186.045 30.7451 196.435C38.8251 204.005 43.6551 214.965 49.3051 221.265C45.2551 215.305 42.4851 208.335 41.3451 202.295C39.3851 191.945 47.3052 174.095 44.5752 166.445C49.9752 176.275 51.4551 192.495 51.4451 198.755C51.4251 211.655 55.0751 226.825 59.6251 232.585Z" fill="black"/>
<path d="M37.705 199.155C32.355 188.755 17.815 176.435 15.495 164.115C13.695 154.565 10.445 144.215 17.615 126.855C16.095 135.435 17.655 145.225 24.285 157.655C30.845 169.975 29.635 180.175 32.465 184.765C30.985 177.705 31.065 170.215 32.305 164.185C34.425 153.865 46.295 144.015 47.105 133.315C48.315 143.515 44.795 158.795 42.765 164.715C38.115 178.255 35.795 184.705 37.705 199.155Z" fill="black"/>
<path d="M29.8351 162.085C28.5251 149.365 19.635 134.215 20.135 121.895C20.525 112.185 21.0151 103.635 33.2651 89.375C28.7251 97.555 28.825 104.255 30.4351 118.255C31.955 131.385 29.0851 141.785 30.3351 147.035C30.8351 136.735 33.055 131.925 36.795 127.045C43.765 117.955 53.5551 114.125 55.8851 106.645C55.6751 114.825 49.975 126.595 46.185 131.585C37.545 142.985 31.2451 148.355 29.8351 162.085Z" fill="black"/>
<path d="M33.5151 127.275C36.1751 114.765 31.5051 102.525 34.8851 92.615C37.7051 84.335 41.7451 75.855 55.5851 71.605C51.3451 73.935 45.7051 81.785 45.0851 87.465C43.4751 102.105 38.5451 108.445 38.1151 113.825C41.3451 104.935 46.5851 100.555 51.6451 97.055C61.0651 90.545 65.9851 86.355 68.9151 79.795C68.6151 88.175 63.5651 98.675 56.4951 103.825C44.9351 112.245 36.2951 120.285 33.5151 127.275Z" fill="black"/>
<path d="M83.6551 57.875C78.9051 60.195 64.5651 64.135 58.1051 71.705C49.4551 81.835 49.6151 90.895 46.4951 96.545C51.8451 92.205 62.0451 84.835 65.4751 79.675C68.9151 74.535 74.8651 65.045 83.6551 57.875Z" fill="black"/>
<path d="M247.575 269.435C245.155 271.255 237.785 275.695 227.175 275.695C204.355 275.695 201.625 261.555 172.645 261.555C149.715 261.555 129.015 280.035 119.125 289.425L125.385 294.875C129.015 289.825 149.215 265.595 169.615 265.595C182.635 265.595 192.535 284.785 216.065 284.785C233.935 284.785 243.635 274.895 247.575 269.435Z" fill="black"/>
<path d="M190.595 261.615C200.795 261.365 215.635 269.505 230.575 269.185C242.495 268.935 263.695 262.775 271.625 244.495C266.825 249.845 259.885 257.045 238.455 257.215C225.435 257.315 213.515 260.855 209.225 260.855C215.135 259.345 221.765 257.035 227.095 251.915C232.095 247.115 237.545 231.365 241.635 226.615C234.215 229.845 219.875 246.305 214.115 251.155C204.695 259.095 200.285 259.235 190.595 261.615Z" fill="black"/>
<path d="M228.155 254.695C238.355 252.675 259.125 249.005 264.105 245.805C272.285 240.555 289.955 230.765 293.185 208.645C289.855 216.925 279.855 226.215 265.715 231.775C252.835 236.835 247.335 243.785 239.965 247.935C245.715 243.595 249.665 238.545 252.685 233.195C257.875 224.025 257.125 201.995 262.175 195.635C253.895 203.205 246.915 218.485 244.905 224.415C240.775 236.625 236.535 249.945 228.155 254.695Z" fill="black"/>
<path d="M256.125 232.585C261.885 226.625 284.305 215.925 289.655 207.945C295.075 199.875 304.805 192.395 302.175 168.665C301.685 177.575 296.095 186.045 285.005 196.435C276.925 204.005 272.095 214.965 266.445 221.265C270.495 215.305 273.265 208.335 274.405 202.295C276.365 191.945 268.445 174.095 271.175 166.445C265.775 176.275 264.295 192.495 264.305 198.755C264.325 211.655 260.675 226.825 256.125 232.585Z" fill="black"/>
<path d="M278.045 199.155C283.395 188.755 297.935 176.435 300.255 164.115C302.055 154.565 305.305 144.215 298.135 126.855C299.655 135.435 298.095 145.225 291.465 157.655C284.905 169.975 286.115 180.175 283.285 184.765C284.765 177.705 284.685 170.215 283.445 164.185C281.325 153.865 269.455 144.015 268.645 133.315C267.435 143.515 270.955 158.795 272.985 164.715C277.635 178.255 279.955 184.705 278.045 199.155Z" fill="black"/>
<path d="M285.915 162.085C287.225 149.365 296.115 134.215 295.615 121.895C295.225 112.185 294.735 103.635 282.485 89.375C287.025 97.555 286.925 104.255 285.315 118.255C283.795 131.385 286.665 141.785 285.415 147.035C284.915 136.735 282.695 131.925 278.955 127.045C271.985 117.955 262.195 114.125 259.865 106.645C260.075 114.825 265.775 126.595 269.565 131.585C278.205 142.985 284.505 148.355 285.915 162.085Z" fill="black"/>
<path d="M282.235 127.275C279.575 114.765 284.245 102.525 280.865 92.615C278.045 84.335 274.005 75.855 260.165 71.605C264.405 73.935 270.045 81.785 270.665 87.465C272.275 102.105 277.205 108.445 277.635 113.825C274.405 104.935 269.165 100.555 264.105 97.055C254.685 90.545 249.765 86.355 246.835 79.795C247.135 88.175 252.185 98.675 259.255 103.825C270.815 112.245 279.455 120.285 282.235 127.275Z" fill="black"/>
<path d="M232.095 57.875C236.845 60.195 251.185 64.135 257.645 71.705C266.295 81.835 266.135 90.895 269.255 96.545C263.905 92.205 253.705 84.835 250.275 79.675C246.835 74.535 240.885 65.045 232.095 57.875Z" fill="black"/>
<path d="M157.875 135.125C160.774 135.125 163.125 132.774 163.125 129.875C163.125 126.976 160.774 124.625 157.875 124.625C154.976 124.625 152.625 126.976 152.625 129.875C152.625 132.774 154.976 135.125 157.875 135.125Z" fill="black"/>
<path d="M171.105 105.465C172.275 103.735 172.865 101.845 172.865 99.8148C172.865 95.7648 169.955 89.6748 159.445 89.6748C149.615 89.6748 146.375 95.3748 146.375 99.1748C146.375 102.045 148.275 103.795 150.835 103.795C153.025 103.795 154.785 102.325 154.785 100.105C154.785 97.4948 152.695 95.4548 152.695 94.2948C152.695 93.3348 154.185 91.8948 156.715 91.8948C158.805 91.8948 162.625 93.2148 162.625 100.205C162.625 109.615 157.175 109.195 157.175 119.025V120.005H158.575C158.735 117.735 159.155 116.055 159.855 114.965C160.575 113.855 162.065 112.585 164.315 111.175C167.675 109.075 169.935 107.175 171.105 105.465Z" fill="black"/>
<path d="M163.505 204.715L163.155 187.495C162.985 184.225 162.915 180.965 162.645 177.705C161.935 173.075 159.815 168.765 159.385 164.085C159.935 163.415 160.535 162.805 161.155 162.195C163.805 163.475 164.205 166.055 166.515 168.035C165.915 165.675 164.515 163.615 163.595 161.375C162.425 159.275 161.705 156.765 159.555 155.355C160.955 154.535 162.485 153.985 163.935 153.275C166.475 152.115 169.225 151.065 171.265 149.135C171.305 148.985 171.305 148.865 171.295 148.745L172.425 149.415C172.825 150.605 173.325 151.745 173.725 152.935C173.895 153.435 173.975 153.955 173.975 154.475C173.975 155.445 173.695 156.425 173.185 157.265C173.455 159.035 174.345 160.695 174.945 162.385C175.945 164.915 176.195 167.645 176.325 170.335C176.435 171.005 176.485 171.705 176.485 172.375C176.485 185.065 168.065 198.945 163.505 204.715ZM139.265 172.375C139.265 171.705 139.315 171.005 139.425 170.335C139.555 167.645 139.805 164.915 140.805 162.385C141.405 160.695 142.295 159.035 142.565 157.265C142.055 156.425 141.775 155.445 141.775 154.475C141.775 153.955 141.855 153.435 142.025 152.935C142.425 151.745 142.925 150.605 143.325 149.415L144.455 148.745C144.445 148.865 144.445 148.985 144.485 149.135C146.525 151.065 149.275 152.115 151.815 153.275C153.265 153.985 154.795 154.535 156.195 155.355C154.045 156.765 153.325 159.275 152.155 161.375C151.235 163.615 149.835 165.675 149.235 168.035C151.545 166.055 151.945 163.475 154.595 162.195C155.215 162.805 155.815 163.415 156.365 164.085C155.935 168.765 153.815 173.075 153.105 177.705C152.835 180.965 152.765 184.225 152.595 187.495L152.245 204.715C147.685 198.945 139.265 185.065 139.265 172.375ZM199.405 264.075C203.465 261.465 207.785 259.265 211.825 256.625L216.595 253.565C218.995 252.185 220.885 250.185 223.045 248.505C223.445 246.135 223.665 243.755 224.115 241.395V234.265C223.775 233.075 224.035 231.835 223.775 230.635C223.535 226.825 223.265 222.985 222.755 219.195C221.795 214.205 221.975 209.105 221.025 204.115C220.745 202.355 219.745 200.835 219.225 199.145C219.795 198.915 220.365 198.665 220.955 198.445C220.245 196.315 219.045 196.305 219.045 195.295C219.045 194.075 220.415 192.825 221.095 191.735C220.385 190.995 219.385 190.635 218.445 190.255C218.455 189.705 218.475 189.145 218.475 188.595C218.475 187.925 218.445 187.265 218.325 186.605C217.705 181.455 216.835 176.335 216.375 171.165C216.265 168.405 214.455 165.665 211.705 164.765C205.525 164.555 199.405 163.315 193.415 161.875C189.365 160.855 185.095 159.585 182.245 156.435C180.615 154.315 178.195 152.985 176.105 151.345C173.765 149.675 171.525 147.635 168.585 147.045C168.605 147.095 168.645 147.135 168.675 147.185L169.285 147.865C169.565 148.095 169.835 148.345 170.095 148.595C169.795 149.055 169.435 149.455 169.095 149.885C163.445 146.905 161.935 146.875 160.185 146.875H155.565C153.815 146.875 152.305 146.905 146.655 149.885C146.315 149.455 145.955 149.055 145.655 148.595C145.915 148.345 146.185 148.095 146.465 147.865L147.075 147.185C147.105 147.135 147.145 147.095 147.165 147.045C144.225 147.635 141.985 149.675 139.645 151.345C137.555 152.985 135.135 154.315 133.505 156.435C130.655 159.585 126.385 160.855 122.335 161.875C116.345 163.315 110.225 164.555 104.045 164.765C101.295 165.665 99.4848 168.405 99.3748 171.165C98.9148 176.335 98.0447 181.455 97.4247 186.605C97.3047 187.265 97.2747 187.925 97.2747 188.595C97.2747 189.145 97.2947 189.705 97.3047 190.255C96.3647 190.635 95.3648 190.995 94.6548 191.735C95.3348 192.825 96.7047 194.075 96.7047 195.295C96.7047 196.305 95.5048 196.315 94.7948 198.445C95.3848 198.665 95.9547 198.915 96.5247 199.145C96.0047 200.835 95.0048 202.355 94.7248 204.115C93.7748 209.105 93.9548 214.205 92.9948 219.195C92.4848 222.985 92.2148 226.825 91.9748 230.635C91.7148 231.835 91.9748 233.075 91.6348 234.265V241.395C92.0848 243.755 92.3047 246.135 92.7047 248.505C94.8647 250.185 96.7548 252.185 99.1548 253.565L103.925 256.625C107.965 259.265 112.285 261.465 116.345 264.075L113.325 305.315C134.335 309.275 144.275 311.585 153.235 312.515C154.795 312.675 156.325 312.795 157.875 312.875C159.425 312.795 160.955 312.675 162.515 312.515C171.475 311.585 181.415 309.275 202.425 305.315L199.405 264.075Z" fill="black"/>
<path d="M154.825 142.875C151.035 144.095 149.325 145.465 148.425 146.525C150.745 145.795 152.915 144.675 155.315 144.175C156.175 144.005 157.005 143.915 157.875 143.895C158.745 143.915 159.575 144.005 160.435 144.175C162.835 144.675 165.005 145.795 167.325 146.525C166.425 145.465 164.715 144.095 160.925 142.875H154.825Z" fill="black"/>
</g>
<defs>
<clipPath id="clip0_22715_7444">
<rect width="315.75" height="315.75" fill="white"/>
</clipPath>
</defs>
</svg>
