<svg width="20" height="19" viewBox="0 0 20 19" fill="none" xmlns="http://www.w3.org/2000/svg">
<path d="M0.894009 9.34747L8.99191 0.777806L9.53471 0.203092C9.65838 0.0730081 9.82563 0 9.99996 0C10.1743 0 10.3415 0.0730081 10.4652 0.203092L19.1059 9.34747C19.2326 9.48113 19.3328 9.64031 19.4005 9.81562C19.4681 9.99094 19.502 10.1788 19.4999 10.3682C19.4915 11.1493 18.8775 11.7728 18.1398 11.7728H17.2491V19H2.75082V11.7728H1.84128C1.48291 11.7728 1.1455 11.6241 0.891912 11.3556C0.767049 11.2239 0.668116 11.0672 0.600845 10.8946C0.533574 10.7221 0.499303 10.5371 0.500011 10.3504C0.500011 9.97322 0.640425 9.61597 0.894009 9.34747ZM8.82635 17.4023H11.1736V12.8756H8.82635V17.4023ZM4.25975 10.1751V17.4023H7.48508V12.3431C7.48508 11.8527 7.86022 11.4555 8.32338 11.4555H11.6765C12.1397 11.4555 12.5148 11.8527 12.5148 12.3431V17.4023H15.7402V10.1751H17.7521L9.99787 1.97161L9.51375 2.48419L2.24575 10.1751H4.25975Z" />
</svg>
