<svg width="24" height="24" viewBox="0 0 24 24" xmlns="http://www.w3.org/2000/svg">
    <path class="st0" d="M3.8,6c0-0.3,0.1-0.6,0.2-0.9c0.1-0.2,0.3-0.4,0.5-0.4h15c0.2,0,0.4,0.1,0.5,0.4c0.1,0.2,0.2,0.6,0.2,0.9
	S20.2,6.6,20,6.9c-0.1,0.2-0.3,0.4-0.5,0.4h-15C4.3,7.2,4.1,7.1,4,6.9C3.8,6.6,3.8,6.3,3.8,6L3.8,6z M3.8,12c0-0.3,0.1-0.6,0.2-0.9
	c0.1-0.2,0.3-0.4,0.5-0.4h15c0.2,0,0.4,0.1,0.5,0.4c0.1,0.2,0.2,0.6,0.2,0.9s-0.1,0.6-0.2,0.9c-0.1,0.2-0.3,0.4-0.5,0.4h-15
	c-0.2,0-0.4-0.1-0.5-0.4C3.8,12.6,3.8,12.3,3.8,12L3.8,12z M3.8,18c0-0.3,0.1-0.6,0.2-0.9c0.1-0.2,0.3-0.4,0.5-0.4h15
	c0.2,0,0.4,0.1,0.5,0.4c0.1,0.2,0.2,0.6,0.2,0.9s-0.1,0.6-0.2,0.9c-0.1,0.2-0.3,0.4-0.5,0.4h-15c-0.2,0-0.4-0.1-0.5-0.4
	C3.8,18.6,3.8,18.3,3.8,18L3.8,18z"/>
</svg>
